<svg width="37" height="37" viewBox="0 0 37 37" fill="none" xmlns="http://www.w3.org/2000/svg">
<path d="M18.4527 13.752C21.8265 13.752 24.5616 16.487 24.5616 19.8608C24.5616 23.2347 21.8265 25.9697 18.4527 25.9697C15.0789 25.9697 12.3439 23.2347 12.3439 19.8608C12.3439 16.487 15.0789 13.752 18.4527 13.752ZM18.4527 16.0428C16.3441 16.0428 14.6347 17.7522 14.6347 19.8608C14.6347 21.9694 16.3441 23.6788 18.4527 23.6788C20.5613 23.6788 22.2707 21.9694 22.2707 19.8608C22.2707 17.7522 20.5613 16.0428 18.4527 16.0428ZM18.4527 8.39966C25.4985 8.39966 31.5808 13.2104 33.2684 19.9521C33.422 20.5658 33.0491 21.1878 32.4354 21.3414C31.8218 21.4949 31.1998 21.1221 31.0461 20.5083C29.6122 14.7803 24.4415 10.6905 18.4527 10.6905C12.4613 10.6905 7.28891 14.7838 5.85754 20.5154C5.70427 21.129 5.08248 21.5022 4.46874 21.3491C3.855 21.1957 3.48171 20.574 3.63499 19.9602C5.31964 13.2145 11.4038 8.39966 18.4527 8.39966Z" fill="#212121"/>
</svg>
