<svg width="47" height="47" viewBox="0 0 47 47" fill="none" xmlns="http://www.w3.org/2000/svg">
<path d="M44.2153 12.3107L35.9103 2.6755L34.264 0.766479H14.6377C12.0002 0.766479 9.8667 2.9 9.8667 5.5375V11.6021H12.8234L12.8219 6.69971C12.828 5.21678 14.0192 4.01792 15.4975 4.01792L32.2877 4.00265V11.9564C32.2893 14.9177 34.6809 17.3169 37.6437 17.3169H43.4578L43.1691 40.2557C43.163 41.7325 41.9718 42.9237 40.4935 42.9344L15.2853 42.9222C13.9367 42.9222 12.8509 41.5996 12.8417 39.967V38.0259H9.88197V40.9215C9.88197 43.8339 11.8322 46.1981 14.2269 46.1981L41.3548 46.1904C43.9908 46.1904 46.1258 44.0462 46.1258 41.4164V14.5313L44.2153 12.3107Z" fill="#434440"/>
<path d="M31.3102 39.5043H0.544434V10.1222H31.3102V39.5043ZM3.49807 36.5476H28.352V13.0789H3.49807" fill="#EA4C3A"/>
<path d="M16.2961 14.6122C16.7619 14.8275 16.6657 15.1131 16.5222 16.4464C16.374 17.8285 15.8899 20.3469 14.9461 22.8194C14.0053 25.2966 12.611 27.7218 11.3953 29.5239C10.1781 31.3229 9.13809 32.4913 8.34394 33.1678C7.55132 33.8413 6.99694 34.0215 6.6411 34.0826C6.28526 34.1437 6.12337 34.0826 6.02258 33.9039C5.92636 33.7237 5.89429 33.4229 5.97523 33.0624C6.05618 32.7051 6.25166 32.2836 6.80298 31.7445C7.35278 31.2038 8.263 30.5456 9.52906 29.9301C10.7951 29.3162 12.417 28.7465 13.7472 28.3556C15.0774 27.9646 16.1159 27.7554 17.0246 27.592C17.9333 27.427 18.7107 27.3064 19.4743 27.2468C20.2379 27.1857 20.9832 27.1857 21.7147 27.2468C22.4447 27.3064 23.1579 27.4255 23.7734 27.5767C24.3934 27.7248 24.9112 27.9081 25.3647 28.1906C25.8214 28.4762 26.2078 28.8641 26.4048 29.2994C26.5987 29.7362 26.5987 30.2157 26.4369 30.5593C26.2765 30.906 25.9512 31.1152 25.577 31.2328C25.2013 31.355 24.7798 31.384 24.2774 31.2328C23.7734 31.0832 23.19 30.7533 22.5745 30.318C21.9575 29.8843 21.3085 29.3437 20.4654 28.5052C19.6209 27.6637 18.5839 26.5229 17.7058 25.4157C16.8307 24.3054 16.1159 23.2257 15.6318 22.3109C15.1446 21.3961 14.885 20.6462 14.6742 19.8948C14.4635 19.1449 14.3016 18.3981 14.2359 17.7231C14.1703 17.0465 14.2039 16.4448 14.268 15.9683C14.3321 15.4873 14.4299 15.1284 14.5933 14.8871C14.7552 14.6473 14.9843 14.5282 15.1462 14.4671C15.308 14.406 15.4043 14.406 15.5035 14.3922C15.5997 14.3785 15.696 14.348 15.8426 14.3922C15.9861 14.4381 16.1724 14.5511 16.3618 14.6671" stroke="#EA4C3A" stroke-width="0.75" stroke-miterlimit="10" stroke-linejoin="round"/>
</svg>
